# xmcd CD database file
#
# Track frame offsets:
#	150
#	4080
#	19080
#	29435
#	45075
#	54668
#	71583
#	79708
#	99330
#	116723
#	124305
#	156918
#	169410
#
# Disc length: 2462 seconds
#
# Revision: 0
# Processed by: cddbd v1.5.1PL2 Copyright (c) Steve Scherf et al.
# Submitted via: CDex 1.51
#
DISCID=a3099c0d
DTITLE=マキ凛花 - シネマチカ
DYEAR=2005
DGENRE=J-pop
TTITLE0=overture
TTITLE1=STRAY CATS MUSICAL（ガチャガチャねこのミュージカル）
TTITLE2=DRIVIN' COWGIRL
TTITLE3=WITNESS（目撃者）
TTITLE4=CABARET IN LITTLE ROCK
TTITLE5=P99
TTITLE6=恋はシャ・バ・ディ・バ
TTITLE7=Миа (ミア）
TTITLE8=LONELY GIRL BLUES
TTITLE9=男の子って単純ね！
TTITLE10=ジャジーとハーレムフランチェスカ
TTITLE11=虹のワルツ
TTITLE12=What Girls Want For A Man!（だって女の子だもん!）〜シネマチカバージョン〜
EXTD=YEAR: 2005
EXTT0=
EXTT1=
EXTT2=
EXTT3=
EXTT4=
EXTT5=
EXTT6=
EXTT7=
EXTT8=
EXTT9=
EXTT10=
EXTT11=
EXTT12=
PLAYORDER=
